<?xml version="1.0" encoding="UTF-8"?>
<!DOCTYPE svg PUBLIC "-//W3C//DTD SVG 1.1//EN" "http://www.w3.org/Graphics/SVG/1.1/DTD/svg11.dtd">
<!-- Creator: CorelDRAW -->
<svg xmlns="http://www.w3.org/2000/svg" xml:space="preserve" width="512px" height="512px" version="1.1" style="shape-rendering:geometricPrecision; text-rendering:geometricPrecision; image-rendering:optimizeQuality; fill-rule:evenodd; clip-rule:evenodd"
viewBox="0 0 512 512"
 xmlns:xlink="http://www.w3.org/1999/xlink">
 <defs>
  <style type="text/css">
   <![CDATA[
    .fil0 {fill:black}
   ]]>
  </style>
 </defs>
 <g id="Layer_x0020_1">
  <metadata id="CorelCorpID_0Corel-Layer"/>
  <path class="fil0" d="M350 501l-324 0c-15,0 -26,-12 -26,-25l0 -440c0,-13 12,-25 26,-25l324 0c13,0 25,12 25,25l0 439c0,15 -11,26 -25,26zm-24 -347l-277 0c-4,0 -8,-3 -8,-7l0 -77c0,-4 4,-7 8,-7l277 0c4,0 8,3 8,7l0 77c0,4 -4,7 -8,7zm-270 -14l263 0 0 -62 -263 0 0 62zm99 309l-106 0c-4,0 -8,-3 -8,-7l0 -85c0,-4 4,-8 8,-8l106 0c4,0 8,4 8,8l0 85c-1,4 -4,7 -8,7zm-99 -14l92 0 0 -71 -92 0 0 71zm270 -145l-79 0c-4,0 -8,-3 -8,-7l0 -92c0,-4 4,-7 8,-7l79 0c4,0 8,3 8,7l0 92c0,4 -4,7 -8,7zm-72 -14l65 0 0 -78 -65 0 0 78zm-49 -72l-156 0c-4,0 -8,-3 -8,-7 0,-4 4,-8 8,-8l156 0c4,0 8,4 8,8 0,4 -4,7 -8,7zm0 55l-156 0c-4,0 -8,-3 -8,-8 0,-4 4,-7 8,-7l156 0c4,0 8,3 8,7 0,5 -4,8 -8,8zm0 54l-156 0c-4,0 -8,-3 -8,-7 0,-4 4,-8 8,-8l156 0c4,0 8,4 8,8 0,4 -4,7 -8,7zm121 58l-132 0c-5,0 -8,-3 -8,-7 0,-4 3,-8 8,-8l132 0c4,0 8,4 8,8 0,4 -4,7 -8,7zm0 36l-132 0c-5,0 -8,-4 -8,-8 0,-4 3,-7 8,-7l132 0c4,0 8,3 8,7 0,4 -4,8 -8,8zm0 35l-132 0c-5,0 -8,-3 -8,-8 0,-4 3,-7 8,-7l132 0c4,0 8,3 8,7 0,5 -4,8 -8,8z"/>
  <path class="fil0" d="M470 416l-60 0c-4,0 -7,-4 -7,-8l0 -175 75 0 0 175c0,4 -4,8 -8,8zm-67 -198l0 -130c0,-4 3,-8 7,-8l60 0c4,0 8,4 8,8l0 130 -75 0z"/>
  <path class="fil0" d="M440 501c-3,0 -6,-2 -7,-5l-23 -66 0 0 60 0 -23 66c0,3 -3,5 -7,5z"/>
  <path class="fil0" d="M505 306c-4,0 -8,-3 -8,-7l0 -154c0,-8 -4,-15 -10,-15l-17 0c-4,0 -7,-3 -7,-7 0,-4 3,-8 7,-8l17 0c14,0 25,13 25,29l0 155c0,4 -3,7 -7,7z"/>
  <path class="fil0" d="M417 66l0 -22c0,-4 3,-7 7,-7l32 0c4,0 8,3 8,7l0 22 -47 0z"/>
 </g>
</svg>
